<?xml version="1.0" encoding="UTF-8"?>
<svg width="870px" height="240px" viewBox="0 0 870 240" version="1.1" xmlns="http://www.w3.org/2000/svg" xmlns:xlink="http://www.w3.org/1999/xlink">
    <title>Artboard</title>
    <g id="Artboard" stroke="none" stroke-width="1" fill="none" fill-rule="evenodd">
        <g id="Group-3" transform="translate(23.000000, 24.026000)" fill="#000000" fill-rule="nonzero">
            <g id="Group">
                <path d="M124.894,162.819 C123.17,162.819 121.772,164.217 121.772,165.941 C121.772,167.666 123.17,169.063 124.894,169.063 C126.618,169.063 128.016,167.666 128.016,165.941 C128.016,164.217 126.618,162.819 124.894,162.819 L124.894,162.819 Z" id="Path"></path>
                <path d="M104.766,162.819 C103.042,162.819 101.644,164.217 101.644,165.941 C101.644,167.666 103.042,169.063 104.766,169.063 C106.49,169.063 107.888,167.666 107.888,165.941 C107.888,164.217 106.491,162.819 104.766,162.819 Z" id="Path"></path>
                <path d="M115.209,172.503 C113.485,172.503 112.087,173.901 112.087,175.625 C112.087,177.35 113.485,178.747 115.209,178.747 C116.933,178.747 118.331,177.35 118.331,175.625 C118.331,173.902 116.934,172.503 115.209,172.503 Z" id="Path"></path>
                <path d="M84.639,162.819 C82.915,162.819 81.517,164.217 81.517,165.941 C81.517,167.666 82.915,169.063 84.639,169.063 C86.363,169.063 87.761,167.666 87.761,165.941 C87.761,164.217 86.363,162.819 84.639,162.819 Z" id="Path"></path>
                <path d="M95.081,172.503 C93.357,172.503 91.959,173.901 91.959,175.625 C91.959,177.35 93.357,178.747 95.081,178.747 C96.806,178.747 98.2030005,177.35 98.2030005,175.625 C98.204,173.902 96.806,172.503 95.081,172.503 Z" id="Path"></path>
                <path d="M64.511,162.819 C62.787,162.819 61.389,164.217 61.389,165.941 C61.389,167.666 62.787,169.063 64.511,169.063 C66.235,169.063 67.633,167.666 67.633,165.941 C67.633,164.217 66.235,162.819 64.511,162.819 Z" id="Path"></path>
                <path d="M74.954,172.503 C73.23,172.503 71.832,173.901 71.832,175.625 C71.832,177.35 73.23,178.747 74.954,178.747 C76.678,178.747 78.076,177.35 78.076,175.625 C78.076,173.902 76.678,172.503 74.954,172.503 Z" id="Path"></path>
                <path d="M44.383,162.819 C42.659,162.819 41.261,164.217 41.261,165.941 C41.261,167.666 42.659,169.063 44.383,169.063 C46.107,169.063 47.505,167.666 47.505,165.941 C47.505,164.217 46.108,162.819 44.383,162.819 Z" id="Path"></path>
                <path d="M54.826,172.503 C53.102,172.503 51.704,173.901 51.704,175.625 C51.704,177.35 53.102,178.747 54.826,178.747 C56.55,178.747 57.948,177.35 57.948,175.625 C57.948,173.902 56.55,172.503 54.826,172.503 Z" id="Path"></path>
                <circle id="Oval" cx="24.256" cy="165.941" r="3.122"></circle>
                <path d="M34.699,172.503 C32.975,172.503 31.577,173.901 31.577,175.625 C31.577,177.35 32.975,178.747 34.699,178.747 C36.423,178.747 37.821,177.35 37.821,175.625 C37.82,173.902 36.423,172.503 34.699,172.503 Z" id="Path"></path>
                <path d="M14.571,152.376 C12.847,152.376 11.449,153.774 11.449,155.499 C11.449,157.223 12.847,158.621 14.571,158.621 C16.295,158.621 17.693,157.224 17.693,155.499 C17.693,153.774 16.295,152.376 14.571,152.376 L14.571,152.376 Z" id="Path"></path>
                <path d="M119.935,0 L40.496,0 C18.166,0 0,18.167 0,40.496 L0,149.904 C0,172.234 18.166,190.4 40.496,190.4 L119.935,190.4 C142.265,190.4 160.432,172.233 160.432,149.904 L160.432,40.496 C160.432,18.167 142.265,0 119.935,0 Z M152.381,149.904 C152.381,155.722 150.834,161.182 148.141,165.909 C148.124,164.2 146.736,162.818 145.022,162.818 C143.298,162.818 141.9,164.216 141.9,165.94 C141.9,167.665 143.298,169.062 145.022,169.062 C145.477,169.062 145.906,168.96 146.296,168.785 C144.096,171.847 141.381,174.513 138.273,176.651 C138.386,176.328 138.46,175.986 138.46,175.625 C138.46,173.901 137.062,172.503 135.338,172.503 C133.614,172.503 132.216,173.901 132.216,175.625 C132.216,177.186 133.364,178.467 134.859,178.699 C130.388,181.026 125.315,182.349 119.936,182.349 L40.496,182.349 C22.606,182.349 8.051,167.794 8.051,149.904 L8.051,144.143 C15.442,154.025 27.235,160.432 40.496,160.432 L119.935,160.432 C133.196,160.432 144.989,154.024 152.381,144.143 L152.381,149.904 Z M152.381,119.936 C152.381,137.826 137.826,152.381 119.935,152.381 L40.496,152.381 C22.606,152.381 8.051,137.826 8.051,119.936 L8.051,40.497 C8.051,22.607 22.606,8.052 40.496,8.052 L119.935,8.052 C137.826,8.052 152.381,22.607 152.381,40.497 L152.381,119.936 Z" id="Shape"></path>
            </g>
            <g id="noun_command-key_145437" transform="translate(37.000000, 37.974000)">
                <path d="M70.1613722,33.6774369 L61.7420584,33.6774369 L61.7420584,53.3225631 L70.1613722,53.3225631 C79.4615261,53.3225631 87,60.8621253 87,70.1613722 C87,79.4618889 79.4615261,87 70.1613722,87 C60.8621253,87 53.3225631,79.4618889 53.3225631,70.1613722 L53.3225631,61.7420584 L33.6774369,61.7420584 L33.6774369,70.1613722 C33.6774369,79.4618889 26.1380561,87 16.8386278,87 C7.53956224,87 0,79.4618889 0,70.1613722 C0,60.8621253 7.53956224,53.3225631 16.8386278,53.3225631 L25.258123,53.3225631 L25.258123,33.6774369 L16.8386278,33.6774369 C7.53956224,33.6774369 0,26.1378747 0,16.8388092 C0,7.53974363 7.53956224,0 16.8386278,0 C26.1380561,0 33.6774369,7.53956224 33.6774369,16.8388092 L33.6774369,25.258123 L53.3225631,25.258123 L53.3225631,16.8388092 C53.3225631,7.53974363 60.8621253,0 70.1613722,0 C79.4615261,0 87,7.53956224 87,16.8388092 C87,26.1376933 79.4617075,33.6774369 70.1613722,33.6774369 M61.7420584,70.1611908 C61.7420584,74.8119027 65.5102976,78.5805047 70.1613722,78.5805047 C74.8124468,78.5805047 78.5806861,74.8119027 78.5806861,70.1611908 C78.5806861,65.9926192 75.5427314,62.5541508 71.5644401,61.8826372 L71.5644401,61.741877 L61.7420584,61.741877 L61.7420584,70.1611908 Z M25.258123,16.8388092 C25.258123,12.1877346 21.4897024,8.41931388 16.8386278,8.41931388 C12.187916,8.41931388 8.41931388,12.1877346 8.41931388,16.8388092 C8.41931388,21.489521 12.187916,25.258123 16.8386278,25.258123 L25.258123,25.258123 L25.258123,16.8388092 Z M8.41949527,70.1611908 C8.41949527,74.8119027 12.1880973,78.5805047 16.8388092,78.5805047 C21.4898837,78.5805047 25.2583044,74.8119027 25.2583044,70.1611908 L25.2583044,61.741877 L16.8388092,61.741877 C12.187916,61.741877 8.41949527,65.510479 8.41949527,70.1611908 M53.3225631,33.6774369 L33.6774369,33.6774369 L33.6774369,53.3225631 L53.3225631,53.3225631 L53.3225631,33.6774369 Z M70.1613722,8.41931388 C65.5102976,8.41931388 61.7420584,12.1877346 61.7420584,16.8388092 L61.7420584,25.258123 L70.1613722,25.258123 C74.8124468,25.258123 78.5806861,21.489521 78.5806861,16.8388092 C78.5806861,12.1877346 74.8124468,8.41931388 70.1613722,8.41931388" id="Shape"></path>
            </g>
        </g>
        <g id="Group-2" transform="translate(354.000000, 24.026000)" fill="#000000" fill-rule="nonzero">
            <g id="Group">
                <path d="M124.894,162.819 C123.17,162.819 121.772,164.217 121.772,165.941 C121.772,167.666 123.17,169.063 124.894,169.063 C126.618,169.063 128.016,167.666 128.016,165.941 C128.016,164.217 126.618,162.819 124.894,162.819 L124.894,162.819 Z" id="Path"></path>
                <path d="M104.766,162.819 C103.042,162.819 101.644,164.217 101.644,165.941 C101.644,167.666 103.042,169.063 104.766,169.063 C106.49,169.063 107.888,167.666 107.888,165.941 C107.888,164.217 106.491,162.819 104.766,162.819 Z" id="Path"></path>
                <path d="M115.209,172.503 C113.485,172.503 112.087,173.901 112.087,175.625 C112.087,177.35 113.485,178.747 115.209,178.747 C116.933,178.747 118.331,177.35 118.331,175.625 C118.331,173.902 116.934,172.503 115.209,172.503 Z" id="Path"></path>
                <path d="M84.639,162.819 C82.915,162.819 81.517,164.217 81.517,165.941 C81.517,167.666 82.915,169.063 84.639,169.063 C86.363,169.063 87.761,167.666 87.761,165.941 C87.761,164.217 86.363,162.819 84.639,162.819 Z" id="Path"></path>
                <path d="M95.081,172.503 C93.357,172.503 91.959,173.901 91.959,175.625 C91.959,177.35 93.357,178.747 95.081,178.747 C96.806,178.747 98.2030005,177.35 98.2030005,175.625 C98.204,173.902 96.806,172.503 95.081,172.503 Z" id="Path"></path>
                <path d="M64.511,162.819 C62.787,162.819 61.389,164.217 61.389,165.941 C61.389,167.666 62.787,169.063 64.511,169.063 C66.235,169.063 67.633,167.666 67.633,165.941 C67.633,164.217 66.235,162.819 64.511,162.819 Z" id="Path"></path>
                <path d="M74.954,172.503 C73.23,172.503 71.832,173.901 71.832,175.625 C71.832,177.35 73.23,178.747 74.954,178.747 C76.678,178.747 78.076,177.35 78.076,175.625 C78.076,173.902 76.678,172.503 74.954,172.503 Z" id="Path"></path>
                <path d="M44.383,162.819 C42.659,162.819 41.261,164.217 41.261,165.941 C41.261,167.666 42.659,169.063 44.383,169.063 C46.107,169.063 47.505,167.666 47.505,165.941 C47.505,164.217 46.108,162.819 44.383,162.819 Z" id="Path"></path>
                <path d="M54.826,172.503 C53.102,172.503 51.704,173.901 51.704,175.625 C51.704,177.35 53.102,178.747 54.826,178.747 C56.55,178.747 57.948,177.35 57.948,175.625 C57.948,173.902 56.55,172.503 54.826,172.503 Z" id="Path"></path>
                <circle id="Oval" cx="24.256" cy="165.941" r="3.122"></circle>
                <path d="M34.699,172.503 C32.975,172.503 31.577,173.901 31.577,175.625 C31.577,177.35 32.975,178.747 34.699,178.747 C36.423,178.747 37.821,177.35 37.821,175.625 C37.82,173.902 36.423,172.503 34.699,172.503 Z" id="Path"></path>
                <path d="M14.571,152.376 C12.847,152.376 11.449,153.774 11.449,155.499 C11.449,157.223 12.847,158.621 14.571,158.621 C16.295,158.621 17.693,157.224 17.693,155.499 C17.693,153.774 16.295,152.376 14.571,152.376 L14.571,152.376 Z" id="Path"></path>
                <path d="M119.935,0 L40.496,0 C18.166,0 0,18.167 0,40.496 L0,149.904 C0,172.234 18.166,190.4 40.496,190.4 L119.935,190.4 C142.265,190.4 160.432,172.233 160.432,149.904 L160.432,40.496 C160.432,18.167 142.265,0 119.935,0 Z M152.381,149.904 C152.381,155.722 150.834,161.182 148.141,165.909 C148.124,164.2 146.736,162.818 145.022,162.818 C143.298,162.818 141.9,164.216 141.9,165.94 C141.9,167.665 143.298,169.062 145.022,169.062 C145.477,169.062 145.906,168.96 146.296,168.785 C144.096,171.847 141.381,174.513 138.273,176.651 C138.386,176.328 138.46,175.986 138.46,175.625 C138.46,173.901 137.062,172.503 135.338,172.503 C133.614,172.503 132.216,173.901 132.216,175.625 C132.216,177.186 133.364,178.467 134.859,178.699 C130.388,181.026 125.315,182.349 119.936,182.349 L40.496,182.349 C22.606,182.349 8.051,167.794 8.051,149.904 L8.051,144.143 C15.442,154.025 27.235,160.432 40.496,160.432 L119.935,160.432 C133.196,160.432 144.989,154.024 152.381,144.143 L152.381,149.904 Z M152.381,119.936 C152.381,137.826 137.826,152.381 119.935,152.381 L40.496,152.381 C22.606,152.381 8.051,137.826 8.051,119.936 L8.051,40.497 C8.051,22.607 22.606,8.052 40.496,8.052 L119.935,8.052 C137.826,8.052 152.381,22.607 152.381,40.497 L152.381,119.936 Z" id="Shape"></path>
            </g>
            <g id="noun_option-key_3548025" transform="translate(37.000000, 47.974000)">
                <polygon id="Path" points="88 58.2857143 66.162963 58.2857143 27.0518519 0 0 0 0 9.71428571 21.837037 9.71428571 60.9481481 68 88 68"></polygon>
                <rect id="Rectangle" x="52" y="0" width="36" height="10"></rect>
            </g>
        </g>
        <g id="Group-4" transform="translate(685.000000, 24.026000)" fill="#000000">
            <g id="Group-2" fill-rule="nonzero">
                <g id="Group">
                    <path d="M124.894,162.819 C123.17,162.819 121.772,164.217 121.772,165.941 C121.772,167.666 123.17,169.063 124.894,169.063 C126.618,169.063 128.016,167.666 128.016,165.941 C128.016,164.217 126.618,162.819 124.894,162.819 L124.894,162.819 Z" id="Path"></path>
                    <path d="M104.766,162.819 C103.042,162.819 101.644,164.217 101.644,165.941 C101.644,167.666 103.042,169.063 104.766,169.063 C106.49,169.063 107.888,167.666 107.888,165.941 C107.888,164.217 106.491,162.819 104.766,162.819 Z" id="Path"></path>
                    <path d="M115.209,172.503 C113.485,172.503 112.087,173.901 112.087,175.625 C112.087,177.35 113.485,178.747 115.209,178.747 C116.933,178.747 118.331,177.35 118.331,175.625 C118.331,173.902 116.934,172.503 115.209,172.503 Z" id="Path"></path>
                    <path d="M84.639,162.819 C82.915,162.819 81.517,164.217 81.517,165.941 C81.517,167.666 82.915,169.063 84.639,169.063 C86.363,169.063 87.761,167.666 87.761,165.941 C87.761,164.217 86.363,162.819 84.639,162.819 Z" id="Path"></path>
                    <path d="M95.081,172.503 C93.357,172.503 91.959,173.901 91.959,175.625 C91.959,177.35 93.357,178.747 95.081,178.747 C96.806,178.747 98.2030005,177.35 98.2030005,175.625 C98.204,173.902 96.806,172.503 95.081,172.503 Z" id="Path"></path>
                    <path d="M64.511,162.819 C62.787,162.819 61.389,164.217 61.389,165.941 C61.389,167.666 62.787,169.063 64.511,169.063 C66.235,169.063 67.633,167.666 67.633,165.941 C67.633,164.217 66.235,162.819 64.511,162.819 Z" id="Path"></path>
                    <path d="M74.954,172.503 C73.23,172.503 71.832,173.901 71.832,175.625 C71.832,177.35 73.23,178.747 74.954,178.747 C76.678,178.747 78.076,177.35 78.076,175.625 C78.076,173.902 76.678,172.503 74.954,172.503 Z" id="Path"></path>
                    <path d="M44.383,162.819 C42.659,162.819 41.261,164.217 41.261,165.941 C41.261,167.666 42.659,169.063 44.383,169.063 C46.107,169.063 47.505,167.666 47.505,165.941 C47.505,164.217 46.108,162.819 44.383,162.819 Z" id="Path"></path>
                    <path d="M54.826,172.503 C53.102,172.503 51.704,173.901 51.704,175.625 C51.704,177.35 53.102,178.747 54.826,178.747 C56.55,178.747 57.948,177.35 57.948,175.625 C57.948,173.902 56.55,172.503 54.826,172.503 Z" id="Path"></path>
                    <circle id="Oval" cx="24.256" cy="165.941" r="3.122"></circle>
                    <path d="M34.699,172.503 C32.975,172.503 31.577,173.901 31.577,175.625 C31.577,177.35 32.975,178.747 34.699,178.747 C36.423,178.747 37.821,177.35 37.821,175.625 C37.82,173.902 36.423,172.503 34.699,172.503 Z" id="Path"></path>
                    <path d="M14.571,152.376 C12.847,152.376 11.449,153.774 11.449,155.499 C11.449,157.223 12.847,158.621 14.571,158.621 C16.295,158.621 17.693,157.224 17.693,155.499 C17.693,153.774 16.295,152.376 14.571,152.376 L14.571,152.376 Z" id="Path"></path>
                    <path d="M119.935,0 L40.496,0 C18.166,0 0,18.167 0,40.496 L0,149.904 C0,172.234 18.166,190.4 40.496,190.4 L119.935,190.4 C142.265,190.4 160.432,172.233 160.432,149.904 L160.432,40.496 C160.432,18.167 142.265,0 119.935,0 Z M152.381,149.904 C152.381,155.722 150.834,161.182 148.141,165.909 C148.124,164.2 146.736,162.818 145.022,162.818 C143.298,162.818 141.9,164.216 141.9,165.94 C141.9,167.665 143.298,169.062 145.022,169.062 C145.477,169.062 145.906,168.96 146.296,168.785 C144.096,171.847 141.381,174.513 138.273,176.651 C138.386,176.328 138.46,175.986 138.46,175.625 C138.46,173.901 137.062,172.503 135.338,172.503 C133.614,172.503 132.216,173.901 132.216,175.625 C132.216,177.186 133.364,178.467 134.859,178.699 C130.388,181.026 125.315,182.349 119.936,182.349 L40.496,182.349 C22.606,182.349 8.051,167.794 8.051,149.904 L8.051,144.143 C15.442,154.025 27.235,160.432 40.496,160.432 L119.935,160.432 C133.196,160.432 144.989,154.024 152.381,144.143 L152.381,149.904 Z M152.381,119.936 C152.381,137.826 137.826,152.381 119.935,152.381 L40.496,152.381 C22.606,152.381 8.051,137.826 8.051,119.936 L8.051,40.497 C8.051,22.607 22.606,8.052 40.496,8.052 L119.935,8.052 C137.826,8.052 152.381,22.607 152.381,40.497 L152.381,119.936 Z" id="Shape"></path>
                </g>
            </g>
            <text id="1" font-family="AvenirNext-DemiBold, Avenir Next" font-size="90" font-weight="500" letter-spacing="-0.946971429">
                <tspan x="53.5234857" y="109.974">1</tspan>
            </text>
        </g>
        <path d="M245,113 L266,113 L266,134 C266,135.657 267.343,137 269,137 C270.657,137 272,135.657 272,134 L272,113 L293,113 C294.657,113 296,111.657 296,110 C296,108.343 294.657,107 293,107 L272,107 L272,86 C272,84.343 270.657,83 269,83 C267.343,83 266,84.343 266,86 L266,107 L245,107 C243.343,107 242,108.343 242,110 C242,111.657 243.343,113 245,113 Z" id="Path" fill="#000000" fill-rule="nonzero"></path>
        <path d="M576,113 L597,113 L597,134 C597,135.657 598.343,137 600,137 C601.657,137 603,135.657 603,134 L603,113 L624,113 C625.657,113 627,111.657 627,110 C627,108.343 625.657,107 624,107 L603,107 L603,86 C603,84.343 601.657,83 600,83 C598.343,83 597,84.343 597,86 L597,107 L576,107 C574.343,107 573,108.343 573,110 C573,111.657 574.343,113 576,113 Z" id="Path" fill="#000000" fill-rule="nonzero"></path>
    </g>
</svg>